<?xml version="1.0" encoding="utf-8" ?>
<svg baseProfile="full" height="48px" version="1.1" viewBox="0 0 48 48" width="48px" xmlns="http://www.w3.org/2000/svg" xmlns:ev="http://www.w3.org/2001/xml-events" xmlns:xlink="http://www.w3.org/1999/xlink"><defs /><circle cx="44.75" cy="12.75" fill="currentColor" r="0.39176470588235296" /><circle cx="43.75" cy="13.75" fill="currentColor" r="0.4552941176470588" /><circle cx="44.75" cy="13.75" fill="currentColor" r="0.5576470588235294" /><circle cx="41.75" cy="14.75" fill="currentColor" r="0.2611764705882353" /><circle cx="42.75" cy="14.75" fill="currentColor" r="0.6635294117647059" /><circle cx="43.75" cy="14.75" fill="currentColor" r="0.7694117647058822" /><circle cx="44.75" cy="14.75" fill="currentColor" r="0.3458823529411765" /><circle cx="40.75" cy="15.75" fill="currentColor" r="0.47647058823529415" /><circle cx="41.75" cy="15.75" fill="currentColor" r="0.8011764705882353" /><circle cx="42.75" cy="15.75" fill="currentColor" r="0.7094117647058823" /><circle cx="43.75" cy="15.75" fill="currentColor" r="0.6423529411764706" /><circle cx="44.75" cy="15.75" fill="currentColor" r="0.20823529411764705" /><circle cx="34.75" cy="16.75" fill="currentColor" r="0.17647058823529413" /><circle cx="35.75" cy="16.75" fill="currentColor" r="0.2717647058823529" /><circle cx="36.75" cy="16.75" fill="currentColor" r="0.36705882352941177" /><circle cx="37.75" cy="16.75" fill="currentColor" r="0.4270588235294117" /><circle cx="38.75" cy="16.75" fill="currentColor" r="0.4905882352941176" /><circle cx="39.75" cy="16.75" fill="currentColor" r="0.6635294117647059" /><circle cx="40.75" cy="16.75" fill="currentColor" r="0.8117647058823529" /><circle cx="41.75" cy="16.75" fill="currentColor" r="0.6847058823529412" /><circle cx="42.75" cy="16.75" fill="currentColor" r="0.5611764705882353" /><circle cx="43.75" cy="16.75" fill="currentColor" r="0.6776470588235294" /><circle cx="44.75" cy="16.75" fill="currentColor" r="0.16235294117647056" /><circle cx="30.75" cy="17.75" fill="currentColor" r="0.19411764705882353" /><circle cx="31.75" cy="17.75" fill="currentColor" r="0.2858823529411764" /><circle cx="32.75" cy="17.75" fill="currentColor" r="0.3458823529411765" /><circle cx="33.75" cy="17.75" fill="currentColor" r="0.4164705882352941" /><circle cx="34.75" cy="17.75" fill="currentColor" r="0.48" /><circle cx="35.75" cy="17.75" fill="currentColor" r="0.48" /><circle cx="36.75" cy="17.75" fill="currentColor" r="0.47647058823529415" /><circle cx="37.75" cy="17.75" fill="currentColor" r="0.536470588235294" /><circle cx="38.75" cy="17.75" fill="currentColor" r="0.7094117647058823" /><circle cx="39.75" cy="17.75" fill="currentColor" r="0.7976470588235294" /><circle cx="40.75" cy="17.75" fill="currentColor" r="0.7058823529411765" /><circle cx="41.75" cy="17.75" fill="currentColor" r="0.5329411764705881" /><circle cx="42.75" cy="17.75" fill="currentColor" r="0.6776470588235294" /><circle cx="43.75" cy="17.75" fill="currentColor" r="0.6352941176470588" /><circle cx="10.75" cy="18.75" fill="currentColor" r="0.18000000000000002" /><circle cx="22.75" cy="18.75" fill="currentColor" r="0.33176470588235296" /><circle cx="23.75" cy="18.75" fill="currentColor" r="0.508235294117647" /><circle cx="24.75" cy="18.75" fill="currentColor" r="0.5152941176470588" /><circle cx="25.75" cy="18.75" fill="currentColor" r="0.4623529411764705" /><circle cx="26.75" cy="18.75" fill="currentColor" r="0.36000000000000004" /><circle cx="27.75" cy="18.75" fill="currentColor" r="0.3211764705882353" /><circle cx="28.75" cy="18.75" fill="currentColor" r="0.3776470588235294" /><circle cx="29.75" cy="18.75" fill="currentColor" r="0.6529411764705881" /><circle cx="30.75" cy="18.75" fill="currentColor" r="0.7729411764705881" /><circle cx="31.75" cy="18.75" fill="currentColor" r="0.6952941176470588" /><circle cx="32.75" cy="18.75" fill="currentColor" r="0.6070588235294118" /><circle cx="33.75" cy="18.75" fill="currentColor" r="0.5223529411764706" /><circle cx="34.75" cy="18.75" fill="currentColor" r="0.5294117647058824" /><circle cx="35.75" cy="18.75" fill="currentColor" r="0.4694117647058824" /><circle cx="36.75" cy="18.75" fill="currentColor" r="0.5470588235294117" /><circle cx="37.75" cy="18.75" fill="currentColor" r="0.7588235294117647" /><circle cx="38.75" cy="18.75" fill="currentColor" r="0.7941176470588235" /><circle cx="39.75" cy="18.75" fill="currentColor" r="0.7376470588235294" /><circle cx="40.75" cy="18.75" fill="currentColor" r="0.4835294117647059" /><circle cx="41.75" cy="18.75" fill="currentColor" r="0.5929411764705882" /><circle cx="42.75" cy="18.75" fill="currentColor" r="0.7094117647058823" /><circle cx="43.75" cy="18.75" fill="currentColor" r="0.5011764705882353" /><circle cx="9.75" cy="19.75" fill="currentColor" r="0.5152941176470588" /><circle cx="10.75" cy="19.75" fill="currentColor" r="0.748235294117647" /><circle cx="11.75" cy="19.75" fill="currentColor" r="0.5470588235294117" /><circle cx="12.75" cy="19.75" fill="currentColor" r="0.18705882352941175" /><circle cx="21.75" cy="19.75" fill="currentColor" r="0.4129411764705882" /><circle cx="22.75" cy="19.75" fill="currentColor" r="0.6847058823529412" /><circle cx="23.75" cy="19.75" fill="currentColor" r="0.7341176470588235" /><circle cx="24.75" cy="19.75" fill="currentColor" r="0.78" /><circle cx="25.75" cy="19.75" fill="currentColor" r="0.8152941176470588" /><circle cx="26.75" cy="19.75" fill="currentColor" r="0.808235294117647" /><circle cx="27.75" cy="19.75" fill="currentColor" r="0.7941176470588235" /><circle cx="28.75" cy="19.75" fill="currentColor" r="0.8011764705882353" /><circle cx="29.75" cy="19.75" fill="currentColor" r="0.748235294117647" /><circle cx="30.75" cy="19.75" fill="currentColor" r="0.5223529411764706" /><circle cx="31.75" cy="19.75" fill="currentColor" r="0.36705882352941177" /><circle cx="32.75" cy="19.75" fill="currentColor" r="0.3776470588235294" /><circle cx="33.75" cy="19.75" fill="currentColor" r="0.48" /><circle cx="34.75" cy="19.75" fill="currentColor" r="0.5152941176470588" /><circle cx="35.75" cy="19.75" fill="currentColor" r="0.5788235294117647" /><circle cx="36.75" cy="19.75" fill="currentColor" r="0.7835294117647059" /><circle cx="37.75" cy="19.75" fill="currentColor" r="0.78" /><circle cx="38.75" cy="19.75" fill="currentColor" r="0.7658823529411763" /><circle cx="39.75" cy="19.75" fill="currentColor" r="0.5117647058823529" /><circle cx="40.75" cy="19.75" fill="currentColor" r="0.4270588235294117" /><circle cx="41.75" cy="19.75" fill="currentColor" r="0.7129411764705882" /><circle cx="42.75" cy="19.75" fill="currentColor" r="0.6141176470588234" /><circle cx="43.75" cy="19.75" fill="currentColor" r="0.4623529411764705" /><circle cx="7.75" cy="20.75" fill="currentColor" r="0.29294117647058826" /><circle cx="8.75" cy="20.75" fill="currentColor" r="0.7341176470588235" /><circle cx="9.75" cy="20.75" fill="currentColor" r="0.78" /><circle cx="10.75" cy="20.75" fill="currentColor" r="0.7164705882352941" /><circle cx="11.75" cy="20.75" fill="currentColor" r="0.6811764705882353" /><circle cx="12.75" cy="20.75" fill="currentColor" r="0.6458823529411765" /><circle cx="13.75" cy="20.75" fill="currentColor" r="0.2823529411764706" /><circle cx="17.75" cy="20.75" fill="currentColor" r="0.2964705882352941" /><circle cx="18.75" cy="20.75" fill="currentColor" r="0.21529411764705883" /><circle cx="20.75" cy="20.75" fill="currentColor" r="0.4376470588235294" /><circle cx="21.75" cy="20.75" fill="currentColor" r="0.5752941176470587" /><circle cx="22.75" cy="20.75" fill="currentColor" r="0.6423529411764706" /><circle cx="23.75" cy="20.75" fill="currentColor" r="0.723529411764706" /><circle cx="24.75" cy="20.75" fill="currentColor" r="0.7517647058823529" /><circle cx="25.75" cy="20.75" fill="currentColor" r="0.723529411764706" /><circle cx="26.75" cy="20.75" fill="currentColor" r="0.6352941176470588" /><circle cx="27.75" cy="20.75" fill="currentColor" r="0.5576470588235294" /><circle cx="28.75" cy="20.75" fill="currentColor" r="0.5435294117647058" /><circle cx="29.75" cy="20.75" fill="currentColor" r="0.39176470588235296" /><circle cx="30.75" cy="20.75" fill="currentColor" r="0.31411764705882345" /><circle cx="31.75" cy="20.75" fill="currentColor" r="0.3847058823529411" /><circle cx="32.75" cy="20.75" fill="currentColor" r="0.4517647058823529" /><circle cx="33.75" cy="20.75" fill="currentColor" r="0.49764705882352944" /><circle cx="34.75" cy="20.75" fill="currentColor" r="0.5258823529411765" /><circle cx="35.75" cy="20.75" fill="currentColor" r="0.7729411764705881" /><circle cx="36.75" cy="20.75" fill="currentColor" r="0.7835294117647059" /><circle cx="37.75" cy="20.75" fill="currentColor" r="0.7764705882352941" /><circle cx="38.75" cy="20.75" fill="currentColor" r="0.6176470588235293" /><circle cx="39.75" cy="20.75" fill="currentColor" r="0.3352941176470588" /><circle cx="40.75" cy="20.75" fill="currentColor" r="0.5894117647058824" /><circle cx="41.75" cy="20.75" fill="currentColor" r="0.6988235294117647" /><circle cx="42.75" cy="20.75" fill="currentColor" r="0.5011764705882353" /><circle cx="43.75" cy="20.75" fill="currentColor" r="0.43058823529411766" /><circle cx="6.75" cy="21.75" fill="currentColor" r="0.4129411764705882" /><circle cx="7.75" cy="21.75" fill="currentColor" r="0.7764705882352941" /><circle cx="8.75" cy="21.75" fill="currentColor" r="0.7552941176470588" /><circle cx="9.75" cy="21.75" fill="currentColor" r="0.688235294117647" /><circle cx="10.75" cy="21.75" fill="currentColor" r="0.6847058823529412" /><circle cx="11.75" cy="21.75" fill="currentColor" r="0.5258823529411765" /><circle cx="12.75" cy="21.75" fill="currentColor" r="0.6494117647058822" /><circle cx="13.75" cy="21.75" fill="currentColor" r="0.6705882352941176" /><circle cx="14.75" cy="21.75" fill="currentColor" r="0.3776470588235294" /><circle cx="15.75" cy="21.75" fill="currentColor" r="0.1588235294117647" /><circle cx="16.75" cy="21.75" fill="currentColor" r="0.4376470588235294" /><circle cx="17.75" cy="21.75" fill="currentColor" r="0.40941176470588236" /><circle cx="18.75" cy="21.75" fill="currentColor" r="0.4517647058823529" /><circle cx="19.75" cy="21.75" fill="currentColor" r="0.5505882352941177" /><circle cx="20.75" cy="21.75" fill="currentColor" r="0.508235294117647" /><circle cx="21.75" cy="21.75" fill="currentColor" r="0.5470588235294117" /><circle cx="22.75" cy="21.75" fill="currentColor" r="0.6670588235294118" /><circle cx="23.75" cy="21.75" fill="currentColor" r="0.7517647058823529" /><circle cx="24.75" cy="21.75" fill="currentColor" r="0.7517647058823529" /><circle cx="25.75" cy="21.75" fill="currentColor" r="0.6705882352941176" /><circle cx="26.75" cy="21.75" fill="currentColor" r="0.4552941176470588" /><circle cx="27.75" cy="21.75" fill="currentColor" r="0.36705882352941177" /><circle cx="28.75" cy="21.75" fill="currentColor" r="0.36705882352941177" /><circle cx="29.75" cy="21.75" fill="currentColor" r="0.40235294117647064" /><circle cx="30.75" cy="21.75" fill="currentColor" r="0.4376470588235294" /><circle cx="31.75" cy="21.75" fill="currentColor" r="0.4552941176470588" /><circle cx="32.75" cy="21.75" fill="currentColor" r="0.45882352941176463" /><circle cx="33.75" cy="21.75" fill="currentColor" r="0.4694117647058824" /><circle cx="34.75" cy="21.75" fill="currentColor" r="0.723529411764706" /><circle cx="35.75" cy="21.75" fill="currentColor" r="0.7976470588235294" /><circle cx="36.75" cy="21.75" fill="currentColor" r="0.7694117647058822" /><circle cx="37.75" cy="21.75" fill="currentColor" r="0.723529411764706" /><circle cx="38.75" cy="21.75" fill="currentColor" r="0.4129411764705882" /><circle cx="39.75" cy="21.75" fill="currentColor" r="0.3847058823529411" /><circle cx="40.75" cy="21.75" fill="currentColor" r="0.748235294117647" /><circle cx="41.75" cy="21.75" fill="currentColor" r="0.5894117647058824" /><circle cx="42.75" cy="21.75" fill="currentColor" r="0.5223529411764706" /><circle cx="43.75" cy="21.75" fill="currentColor" r="0.4129411764705882" /><circle cx="5.75" cy="22.75" fill="currentColor" r="0.5223529411764706" /><circle cx="6.75" cy="22.75" fill="currentColor" r="0.7270588235294119" /><circle cx="7.75" cy="22.75" fill="currentColor" r="0.748235294117647" /><circle cx="8.75" cy="22.75" fill="currentColor" r="0.691764705882353" /><circle cx="9.75" cy="22.75" fill="currentColor" r="0.7129411764705882" /><circle cx="10.75" cy="22.75" fill="currentColor" r="0.5435294117647058" /><circle cx="11.75" cy="22.75" fill="currentColor" r="0.3423529411764706" /><circle cx="12.75" cy="22.75" fill="currentColor" r="0.4552941176470588" /><circle cx="13.75" cy="22.75" fill="currentColor" r="0.6847058823529412" /><circle cx="14.75" cy="22.75" fill="currentColor" r="0.6247058823529411" /><circle cx="15.75" cy="22.75" fill="currentColor" r="0.5647058823529412" /><circle cx="16.75" cy="22.75" fill="currentColor" r="0.4411764705882352" /><circle cx="17.75" cy="22.75" fill="currentColor" r="0.3952941176470588" /><circle cx="18.75" cy="22.75" fill="currentColor" r="0.688235294117647" /><circle cx="19.75" cy="22.75" fill="currentColor" r="0.7764705882352941" /><circle cx="20.75" cy="22.75" fill="currentColor" r="0.6247058823529411" /><circle cx="21.75" cy="22.75" fill="currentColor" r="0.5682352941176471" /><circle cx="22.75" cy="22.75" fill="currentColor" r="0.7305882352941176" /><circle cx="23.75" cy="22.75" fill="currentColor" r="0.7552941176470588" /><circle cx="24.75" cy="22.75" fill="currentColor" r="0.748235294117647" /><circle cx="25.75" cy="22.75" fill="currentColor" r="0.7200000000000001" /><circle cx="26.75" cy="22.75" fill="currentColor" r="0.6352941176470588" /><circle cx="27.75" cy="22.75" fill="currentColor" r="0.6458823529411765" /><circle cx="28.75" cy="22.75" fill="currentColor" r="0.6141176470588234" /><circle cx="29.75" cy="22.75" fill="currentColor" r="0.5752941176470587" /><circle cx="30.75" cy="22.75" fill="currentColor" r="0.5117647058823529" /><circle cx="31.75" cy="22.75" fill="currentColor" r="0.4835294117647059" /><circle cx="32.75" cy="22.75" fill="currentColor" r="0.45882352941176463" /><circle cx="33.75" cy="22.75" fill="currentColor" r="0.6141176470588234" /><circle cx="34.75" cy="22.75" fill="currentColor" r="0.8047058823529413" /><circle cx="35.75" cy="22.75" fill="currentColor" r="0.7588235294117647" /><circle cx="36.75" cy="22.75" fill="currentColor" r="0.7658823529411763" /><circle cx="37.75" cy="22.75" fill="currentColor" r="0.6035294117647059" /><circle cx="38.75" cy="22.75" fill="currentColor" r="0.33176470588235296" /><circle cx="39.75" cy="22.75" fill="currentColor" r="0.5435294117647058" /><circle cx="40.75" cy="22.75" fill="currentColor" r="0.7517647058823529" /><circle cx="41.75" cy="22.75" fill="currentColor" r="0.5611764705882353" /><circle cx="42.75" cy="22.75" fill="currentColor" r="0.5858823529411765" /><circle cx="43.75" cy="22.75" fill="currentColor" r="0.4164705882352941" /><circle cx="4.75" cy="23.75" fill="currentColor" r="0.3423529411764706" /><circle cx="5.75" cy="23.75" fill="currentColor" r="0.6670588235294118" /><circle cx="6.75" cy="23.75" fill="currentColor" r="0.5576470588235294" /><circle cx="7.75" cy="23.75" fill="currentColor" r="0.691764705882353" /><circle cx="8.75" cy="23.75" fill="currentColor" r="0.723529411764706" /><circle cx="9.75" cy="23.75" fill="currentColor" r="0.6635294117647059" /><circle cx="10.75" cy="23.75" fill="currentColor" r="0.2964705882352941" /><circle cx="11.75" cy="23.75" fill="currentColor" r="0.3423529411764706" /><circle cx="12.75" cy="23.75" fill="currentColor" r="0.3211764705882353" /><circle cx="13.75" cy="23.75" fill="currentColor" r="0.5399999999999999" /><circle cx="14.75" cy="23.75" fill="currentColor" r="0.5470588235294117" /><circle cx="15.75" cy="23.75" fill="currentColor" r="0.38823529411764707" /><circle cx="16.75" cy="23.75" fill="currentColor" r="0.3352941176470588" /><circle cx="17.75" cy="23.75" fill="currentColor" r="0.688235294117647" /><circle cx="18.75" cy="23.75" fill="currentColor" r="0.7976470588235294" /><circle cx="19.75" cy="23.75" fill="currentColor" r="0.7447058823529412" /><circle cx="20.75" cy="23.75" fill="currentColor" r="0.7552941176470588" /><circle cx="21.75" cy="23.75" fill="currentColor" r="0.7058823529411765" /><circle cx="22.75" cy="23.75" fill="currentColor" r="0.748235294117647" /><circle cx="23.75" cy="23.75" fill="currentColor" r="0.7447058823529412" /><circle cx="24.75" cy="23.75" fill="currentColor" r="0.7552941176470588" /><circle cx="25.75" cy="23.75" fill="currentColor" r="0.6388235294117647" /><circle cx="26.75" cy="23.75" fill="currentColor" r="0.40235294117647064" /><circle cx="27.75" cy="23.75" fill="currentColor" r="0.49411764705882355" /><circle cx="28.75" cy="23.75" fill="currentColor" r="0.5258823529411765" /><circle cx="29.75" cy="23.75" fill="currentColor" r="0.5435294117647058" /><circle cx="30.75" cy="23.75" fill="currentColor" r="0.5788235294117647" /><circle cx="31.75" cy="23.75" fill="currentColor" r="0.5647058823529412" /><circle cx="32.75" cy="23.75" fill="currentColor" r="0.5717647058823528" /><circle cx="33.75" cy="23.75" fill="currentColor" r="0.7764705882352941" /><circle cx="34.75" cy="23.75" fill="currentColor" r="0.7764705882352941" /><circle cx="35.75" cy="23.75" fill="currentColor" r="0.7658823529411763" /><circle cx="36.75" cy="23.75" fill="currentColor" r="0.7164705882352941" /><circle cx="37.75" cy="23.75" fill="currentColor" r="0.4552941176470588" /><circle cx="38.75" cy="23.75" fill="currentColor" r="0.37058823529411766" /><circle cx="39.75" cy="23.75" fill="currentColor" r="0.6811764705882353" /><circle cx="40.75" cy="23.75" fill="currentColor" r="0.6776470588235294" /><circle cx="41.75" cy="23.75" fill="currentColor" r="0.5435294117647058" /><circle cx="42.75" cy="23.75" fill="currentColor" r="0.6070588235294118" /><circle cx="43.75" cy="23.75" fill="currentColor" r="0.4164705882352941" /><circle cx="4.75" cy="24.75" fill="currentColor" r="0.47294117647058825" /><circle cx="5.75" cy="24.75" fill="currentColor" r="0.6247058823529411" /><circle cx="6.75" cy="24.75" fill="currentColor" r="0.6105882352941175" /><circle cx="7.75" cy="24.75" fill="currentColor" r="0.42" /><circle cx="8.75" cy="24.75" fill="currentColor" r="0.6176470588235293" /><circle cx="9.75" cy="24.75" fill="currentColor" r="0.5435294117647058" /><circle cx="10.75" cy="24.75" fill="currentColor" r="0.1588235294117647" /><circle cx="11.75" cy="24.75" fill="currentColor" r="0.33176470588235296" /><circle cx="12.75" cy="24.75" fill="currentColor" r="0.38823529411764707" /><circle cx="13.75" cy="24.75" fill="currentColor" r="0.4341176470588235" /><circle cx="14.75" cy="24.75" fill="currentColor" r="0.37058823529411766" /><circle cx="15.75" cy="24.75" fill="currentColor" r="0.40235294117647064" /><circle cx="16.75" cy="24.75" fill="currentColor" r="0.6" /><circle cx="17.75" cy="24.75" fill="currentColor" r="0.7835294117647059" /><circle cx="18.75" cy="24.75" fill="currentColor" r="0.7588235294117647" /><circle cx="19.75" cy="24.75" fill="currentColor" r="0.7517647058823529" /><circle cx="20.75" cy="24.75" fill="currentColor" r="0.748235294117647" /><circle cx="21.75" cy="24.75" fill="currentColor" r="0.7517647058823529" /><circle cx="22.75" cy="24.75" fill="currentColor" r="0.748235294117647" /><circle cx="23.75" cy="24.75" fill="currentColor" r="0.7376470588235294" /><circle cx="24.75" cy="24.75" fill="currentColor" r="0.7517647058823529" /><circle cx="25.75" cy="24.75" fill="currentColor" r="0.5223529411764706" /><circle cx="26.75" cy="24.75" fill="currentColor" r="0.3776470588235294" /><circle cx="27.75" cy="24.75" fill="currentColor" r="0.4376470588235294" /><circle cx="28.75" cy="24.75" fill="currentColor" r="0.36705882352941177" /><circle cx="29.75" cy="24.75" fill="currentColor" r="0.34941176470588237" /><circle cx="30.75" cy="24.75" fill="currentColor" r="0.3988235294117647" /><circle cx="31.75" cy="24.75" fill="currentColor" r="0.4341176470588235" /><circle cx="32.75" cy="24.75" fill="currentColor" r="0.6423529411764706" /><circle cx="33.75" cy="24.75" fill="currentColor" r="0.7941176470588235" /><circle cx="34.75" cy="24.75" fill="currentColor" r="0.7552941176470588" /><circle cx="35.75" cy="24.75" fill="currentColor" r="0.7623529411764706" /><circle cx="36.75" cy="24.75" fill="currentColor" r="0.5964705882352941" /><circle cx="37.75" cy="24.75" fill="currentColor" r="0.38823529411764707" /><circle cx="38.75" cy="24.75" fill="currentColor" r="0.5717647058823528" /><circle cx="39.75" cy="24.75" fill="currentColor" r="0.6847058823529412" /><circle cx="40.75" cy="24.75" fill="currentColor" r="0.5435294117647058" /><circle cx="41.75" cy="24.75" fill="currentColor" r="0.5647058823529412" /><circle cx="42.75" cy="24.75" fill="currentColor" r="0.5929411764705882" /><circle cx="43.75" cy="24.75" fill="currentColor" r="0.40588235294117647" /><circle cx="4.75" cy="25.75" fill="currentColor" r="0.6176470588235293" /><circle cx="5.75" cy="25.75" fill="currentColor" r="0.6670588235294118" /><circle cx="6.75" cy="25.75" fill="currentColor" r="0.5541176470588235" /><circle cx="8.75" cy="25.75" fill="currentColor" r="0.20823529411764705" /><circle cx="9.75" cy="25.75" fill="currentColor" r="0.42" /><circle cx="10.75" cy="25.75" fill="currentColor" r="0.22588235294117645" /><circle cx="11.75" cy="25.75" fill="currentColor" r="0.3105882352941176" /><circle cx="12.75" cy="25.75" fill="currentColor" r="0.2647058823529412" /><circle cx="13.75" cy="25.75" fill="currentColor" r="0.2717647058823529" /><circle cx="14.75" cy="25.75" fill="currentColor" r="0.3776470588235294" /><circle cx="15.75" cy="25.75" fill="currentColor" r="0.5682352941176471" /><circle cx="16.75" cy="25.75" fill="currentColor" r="0.7694117647058822" /><circle cx="17.75" cy="25.75" fill="currentColor" r="0.78" /><circle cx="18.75" cy="25.75" fill="currentColor" r="0.7552941176470588" /><circle cx="19.75" cy="25.75" fill="currentColor" r="0.7447058823529412" /><circle cx="20.75" cy="25.75" fill="currentColor" r="0.7376470588235294" /><circle cx="21.75" cy="25.75" fill="currentColor" r="0.7376470588235294" /><circle cx="22.75" cy="25.75" fill="currentColor" r="0.7341176470588235" /><circle cx="23.75" cy="25.75" fill="currentColor" r="0.7270588235294119" /><circle cx="24.75" cy="25.75" fill="currentColor" r="0.7305882352941176" /><circle cx="25.75" cy="25.75" fill="currentColor" r="0.3988235294117647" /><circle cx="26.75" cy="25.75" fill="currentColor" r="0.3352941176470588" /><circle cx="27.75" cy="25.75" fill="currentColor" r="0.3847058823529411" /><circle cx="28.75" cy="25.75" fill="currentColor" r="0.3388235294117647" /><circle cx="29.75" cy="25.75" fill="currentColor" r="0.328235294117647" /><circle cx="30.75" cy="25.75" fill="currentColor" r="0.3211764705882353" /><circle cx="31.75" cy="25.75" fill="currentColor" r="0.5894117647058824" /><circle cx="32.75" cy="25.75" fill="currentColor" r="0.7905882352941176" /><circle cx="33.75" cy="25.75" fill="currentColor" r="0.7694117647058822" /><circle cx="34.75" cy="25.75" fill="currentColor" r="0.7447058823529412" /><circle cx="35.75" cy="25.75" fill="currentColor" r="0.7305882352941176" /><circle cx="36.75" cy="25.75" fill="currentColor" r="0.4341176470588235" /><circle cx="37.75" cy="25.75" fill="currentColor" r="0.4235294117647058" /><circle cx="38.75" cy="25.75" fill="currentColor" r="0.6670588235294118" /><circle cx="39.75" cy="25.75" fill="currentColor" r="0.536470588235294" /><circle cx="40.75" cy="25.75" fill="currentColor" r="0.5152941176470588" /><circle cx="41.75" cy="25.75" fill="currentColor" r="0.5858823529411765" /><circle cx="42.75" cy="25.75" fill="currentColor" r="0.5399999999999999" /><circle cx="43.75" cy="25.75" fill="currentColor" r="0.40941176470588236" /><circle cx="3.75" cy="26.75" fill="currentColor" r="0.4164705882352941" /><circle cx="4.75" cy="26.75" fill="currentColor" r="0.6988235294117647" /><circle cx="5.75" cy="26.75" fill="currentColor" r="0.5541176470588235" /><circle cx="9.75" cy="26.75" fill="currentColor" r="0.268235294117647" /><circle cx="10.75" cy="26.75" fill="currentColor" r="0.29294117647058826" /><circle cx="11.75" cy="26.75" fill="currentColor" r="0.25058823529411767" /><circle cx="12.75" cy="26.75" fill="currentColor" r="0.3070588235294117" /><circle cx="13.75" cy="26.75" fill="currentColor" r="0.4447058823529412" /><circle cx="14.75" cy="26.75" fill="currentColor" r="0.5505882352941177" /><circle cx="15.75" cy="26.75" fill="currentColor" r="0.7376470588235294" /><circle cx="16.75" cy="26.75" fill="currentColor" r="0.7764705882352941" /><circle cx="17.75" cy="26.75" fill="currentColor" r="0.7517647058823529" /><circle cx="18.75" cy="26.75" fill="currentColor" r="0.7411764705882353" /><circle cx="19.75" cy="26.75" fill="currentColor" r="0.7517647058823529" /><circle cx="20.75" cy="26.75" fill="currentColor" r="0.7905882352941176" /><circle cx="21.75" cy="26.75" fill="currentColor" r="0.7905882352941176" /><circle cx="22.75" cy="26.75" fill="currentColor" r="0.7729411764705881" /><circle cx="23.75" cy="26.75" fill="currentColor" r="0.7341176470588235" /><circle cx="24.75" cy="26.75" fill="currentColor" r="0.6635294117647059" /><circle cx="25.75" cy="26.75" fill="currentColor" r="0.3211764705882353" /><circle cx="26.75" cy="26.75" fill="currentColor" r="0.34941176470588237" /><circle cx="27.75" cy="26.75" fill="currentColor" r="0.3247058823529411" /><circle cx="28.75" cy="26.75" fill="currentColor" r="0.2717647058823529" /><circle cx="29.75" cy="26.75" fill="currentColor" r="0.3458823529411765" /><circle cx="30.75" cy="26.75" fill="currentColor" r="0.6035294117647059" /><circle cx="31.75" cy="26.75" fill="currentColor" r="0.808235294117647" /><circle cx="32.75" cy="26.75" fill="currentColor" r="0.7623529411764706" /><circle cx="33.75" cy="26.75" fill="currentColor" r="0.748235294117647" /><circle cx="34.75" cy="26.75" fill="currentColor" r="0.7588235294117647" /><circle cx="35.75" cy="26.75" fill="currentColor" r="0.5823529411764706" /><circle cx="36.75" cy="26.75" fill="currentColor" r="0.36000000000000004" /><circle cx="37.75" cy="26.75" fill="currentColor" r="0.48705882352941177" /><circle cx="38.75" cy="26.75" fill="currentColor" r="0.5964705882352941" /><circle cx="39.75" cy="26.75" fill="currentColor" r="0.508235294117647" /><circle cx="40.75" cy="26.75" fill="currentColor" r="0.5435294117647058" /><circle cx="41.75" cy="26.75" fill="currentColor" r="0.5823529411764706" /><circle cx="42.75" cy="26.75" fill="currentColor" r="0.5188235294117647" /><circle cx="43.75" cy="26.75" fill="currentColor" r="0.43058823529411766" /><circle cx="3.75" cy="27.75" fill="currentColor" r="0.5717647058823528" /><circle cx="4.75" cy="27.75" fill="currentColor" r="0.2788235294117647" /><circle cx="10.75" cy="27.75" fill="currentColor" r="0.38823529411764707" /><circle cx="11.75" cy="27.75" fill="currentColor" r="0.268235294117647" /><circle cx="12.75" cy="27.75" fill="currentColor" r="0.4517647058823529" /><circle cx="13.75" cy="27.75" fill="currentColor" r="0.5929411764705882" /><circle cx="14.75" cy="27.75" fill="currentColor" r="0.688235294117647" /><circle cx="15.75" cy="27.75" fill="currentColor" r="0.7658823529411763" /><circle cx="16.75" cy="27.75" fill="currentColor" r="0.7447058823529412" /><circle cx="17.75" cy="27.75" fill="currentColor" r="0.7552941176470588" /><circle cx="18.75" cy="27.75" fill="currentColor" r="0.7905882352941176" /><circle cx="19.75" cy="27.75" fill="currentColor" r="0.7588235294117647" /><circle cx="20.75" cy="27.75" fill="currentColor" r="0.49764705882352944" /><circle cx="21.75" cy="27.75" fill="currentColor" r="0.4376470588235294" /><circle cx="22.75" cy="27.75" fill="currentColor" r="0.5047058823529411" /><circle cx="23.75" cy="27.75" fill="currentColor" r="0.7129411764705882" /><circle cx="24.75" cy="27.75" fill="currentColor" r="0.6105882352941175" /><circle cx="25.75" cy="27.75" fill="currentColor" r="0.4341176470588235" /><circle cx="26.75" cy="27.75" fill="currentColor" r="0.3070588235294117" /><circle cx="27.75" cy="27.75" fill="currentColor" r="0.33176470588235296" /><circle cx="28.75" cy="27.75" fill="currentColor" r="0.3247058823529411" /><circle cx="29.75" cy="27.75" fill="currentColor" r="0.5294117647058824" /><circle cx="30.75" cy="27.75" fill="currentColor" r="0.7941176470588235" /><circle cx="31.75" cy="27.75" fill="currentColor" r="0.7552941176470588" /><circle cx="32.75" cy="27.75" fill="currentColor" r="0.7517647058823529" /><circle cx="33.75" cy="27.75" fill="currentColor" r="0.7658823529411763" /><circle cx="34.75" cy="27.75" fill="currentColor" r="0.6176470588235293" /><circle cx="35.75" cy="27.75" fill="currentColor" r="0.4694117647058824" /><circle cx="36.75" cy="27.75" fill="currentColor" r="0.5047058823529411" /><circle cx="37.75" cy="27.75" fill="currentColor" r="0.5470588235294117" /><circle cx="38.75" cy="27.75" fill="currentColor" r="0.5576470588235294" /><circle cx="39.75" cy="27.75" fill="currentColor" r="0.5576470588235294" /><circle cx="40.75" cy="27.75" fill="currentColor" r="0.5223529411764706" /><circle cx="41.75" cy="27.75" fill="currentColor" r="0.5329411764705881" /><circle cx="42.75" cy="27.75" fill="currentColor" r="0.5505882352941177" /><circle cx="43.75" cy="27.75" fill="currentColor" r="0.44823529411764707" /><circle cx="2.75" cy="28.75" fill="currentColor" r="0.2576470588235294" /><circle cx="3.75" cy="28.75" fill="currentColor" r="0.17647058823529413" /><circle cx="10.75" cy="28.75" fill="currentColor" r="0.18352941176470589" /><circle cx="11.75" cy="28.75" fill="currentColor" r="0.5223529411764706" /><circle cx="12.75" cy="28.75" fill="currentColor" r="0.5329411764705881" /><circle cx="13.75" cy="28.75" fill="currentColor" r="0.6635294117647059" /><circle cx="14.75" cy="28.75" fill="currentColor" r="0.7552941176470588" /><circle cx="15.75" cy="28.75" fill="currentColor" r="0.7658823529411763" /><circle cx="16.75" cy="28.75" fill="currentColor" r="0.7976470588235294" /><circle cx="17.75" cy="28.75" fill="currentColor" r="0.7941176470588235" /><circle cx="18.75" cy="28.75" fill="currentColor" r="0.6635294117647059" /><circle cx="19.75" cy="28.75" fill="currentColor" r="0.2647058823529412" /><circle cx="23.75" cy="28.75" fill="currentColor" r="0.18000000000000002" /><circle cx="24.75" cy="28.75" fill="currentColor" r="0.5329411764705881" /><circle cx="25.75" cy="28.75" fill="currentColor" r="0.40588235294117647" /><circle cx="26.75" cy="28.75" fill="currentColor" r="0.3035294117647059" /><circle cx="27.75" cy="28.75" fill="currentColor" r="0.3070588235294117" /><circle cx="28.75" cy="28.75" fill="currentColor" r="0.48705882352941177" /><circle cx="29.75" cy="28.75" fill="currentColor" r="0.7623529411764706" /><circle cx="30.75" cy="28.75" fill="currentColor" r="0.7694117647058822" /><circle cx="31.75" cy="28.75" fill="currentColor" r="0.7517647058823529" /><circle cx="32.75" cy="28.75" fill="currentColor" r="0.7729411764705881" /><circle cx="33.75" cy="28.75" fill="currentColor" r="0.6352941176470588" /><circle cx="34.75" cy="28.75" fill="currentColor" r="0.4447058823529412" /><circle cx="35.75" cy="28.75" fill="currentColor" r="0.48" /><circle cx="36.75" cy="28.75" fill="currentColor" r="0.48" /><circle cx="37.75" cy="28.75" fill="currentColor" r="0.5894117647058824" /><circle cx="38.75" cy="28.75" fill="currentColor" r="0.5399999999999999" /><circle cx="39.75" cy="28.75" fill="currentColor" r="0.5929411764705882" /><circle cx="40.75" cy="28.75" fill="currentColor" r="0.5329411764705881" /><circle cx="41.75" cy="28.75" fill="currentColor" r="0.5117647058823529" /><circle cx="42.75" cy="28.75" fill="currentColor" r="0.5823529411764706" /><circle cx="43.75" cy="28.75" fill="currentColor" r="0.45882352941176463" /><circle cx="2.75" cy="29.75" fill="currentColor" r="0.31411764705882345" /><circle cx="11.75" cy="29.75" fill="currentColor" r="0.16235294117647056" /><circle cx="12.75" cy="29.75" fill="currentColor" r="0.4905882352941176" /><circle cx="13.75" cy="29.75" fill="currentColor" r="0.6741176470588235" /><circle cx="14.75" cy="29.75" fill="currentColor" r="0.7164705882352941" /><circle cx="15.75" cy="29.75" fill="currentColor" r="0.6988235294117647" /><circle cx="16.75" cy="29.75" fill="currentColor" r="0.5823529411764706" /><circle cx="17.75" cy="29.75" fill="currentColor" r="0.3035294117647059" /><circle cx="25.75" cy="29.75" fill="currentColor" r="0.5258823529411765" /><circle cx="26.75" cy="29.75" fill="currentColor" r="0.37058823529411766" /><circle cx="27.75" cy="29.75" fill="currentColor" r="0.40588235294117647" /><circle cx="28.75" cy="29.75" fill="currentColor" r="0.7376470588235294" /><circle cx="29.75" cy="29.75" fill="currentColor" r="0.7658823529411763" /><circle cx="30.75" cy="29.75" fill="currentColor" r="0.7447058823529412" /><circle cx="31.75" cy="29.75" fill="currentColor" r="0.7517647058823529" /><circle cx="32.75" cy="29.75" fill="currentColor" r="0.7517647058823529" /><circle cx="33.75" cy="29.75" fill="currentColor" r="0.4694117647058824" /><circle cx="34.75" cy="29.75" fill="currentColor" r="0.5223529411764706" /><circle cx="35.75" cy="29.75" fill="currentColor" r="0.5152941176470588" /><circle cx="36.75" cy="29.75" fill="currentColor" r="0.5011764705882353" /><circle cx="37.75" cy="29.75" fill="currentColor" r="0.6105882352941175" /><circle cx="38.75" cy="29.75" fill="currentColor" r="0.5541176470588235" /><circle cx="39.75" cy="29.75" fill="currentColor" r="0.6035294117647059" /><circle cx="40.75" cy="29.75" fill="currentColor" r="0.5576470588235294" /><circle cx="41.75" cy="29.75" fill="currentColor" r="0.536470588235294" /><circle cx="42.75" cy="29.75" fill="currentColor" r="0.6141176470588234" /><circle cx="43.75" cy="29.75" fill="currentColor" r="0.47294117647058825" /><circle cx="2.75" cy="30.75" fill="currentColor" r="0.29294117647058826" /><circle cx="14.75" cy="30.75" fill="currentColor" r="0.16588235294117648" /><circle cx="25.75" cy="30.75" fill="currentColor" r="0.3423529411764706" /><circle cx="26.75" cy="30.75" fill="currentColor" r="0.4552941176470588" /><circle cx="27.75" cy="30.75" fill="currentColor" r="0.6317647058823528" /><circle cx="28.75" cy="30.75" fill="currentColor" r="0.7729411764705881" /><circle cx="29.75" cy="30.75" fill="currentColor" r="0.723529411764706" /><circle cx="30.75" cy="30.75" fill="currentColor" r="0.7411764705882353" /><circle cx="31.75" cy="30.75" fill="currentColor" r="0.7870588235294117" /><circle cx="32.75" cy="30.75" fill="currentColor" r="0.6952941176470588" /><circle cx="33.75" cy="30.75" fill="currentColor" r="0.49411764705882355" /><circle cx="34.75" cy="30.75" fill="currentColor" r="0.6" /><circle cx="35.75" cy="30.75" fill="currentColor" r="0.5611764705882353" /><circle cx="36.75" cy="30.75" fill="currentColor" r="0.5576470588235294" /><circle cx="37.75" cy="30.75" fill="currentColor" r="0.6211764705882352" /><circle cx="38.75" cy="30.75" fill="currentColor" r="0.5858823529411765" /><circle cx="39.75" cy="30.75" fill="currentColor" r="0.6176470588235293" /><circle cx="40.75" cy="30.75" fill="currentColor" r="0.5788235294117647" /><circle cx="41.75" cy="30.75" fill="currentColor" r="0.5505882352941177" /><circle cx="42.75" cy="30.75" fill="currentColor" r="0.6317647058823528" /><circle cx="43.75" cy="30.75" fill="currentColor" r="0.5047058823529411" /><circle cx="26.75" cy="31.75" fill="currentColor" r="0.4905882352941176" /><circle cx="27.75" cy="31.75" fill="currentColor" r="0.723529411764706" /><circle cx="28.75" cy="31.75" fill="currentColor" r="0.7200000000000001" /><circle cx="29.75" cy="31.75" fill="currentColor" r="0.7305882352941176" /><circle cx="30.75" cy="31.75" fill="currentColor" r="0.7305882352941176" /><circle cx="31.75" cy="31.75" fill="currentColor" r="0.5611764705882353" /><circle cx="32.75" cy="31.75" fill="currentColor" r="0.5964705882352941" /><circle cx="33.75" cy="31.75" fill="currentColor" r="0.6141176470588234" /><circle cx="34.75" cy="31.75" fill="currentColor" r="0.5894117647058824" /><circle cx="35.75" cy="31.75" fill="currentColor" r="0.5964705882352941" /><circle cx="36.75" cy="31.75" fill="currentColor" r="0.5894117647058824" /><circle cx="37.75" cy="31.75" fill="currentColor" r="0.6176470588235293" /><circle cx="38.75" cy="31.75" fill="currentColor" r="0.6035294117647059" /><circle cx="39.75" cy="31.75" fill="currentColor" r="0.6247058823529411" /><circle cx="40.75" cy="31.75" fill="currentColor" r="0.6176470588235293" /><circle cx="41.75" cy="31.75" fill="currentColor" r="0.5823529411764706" /><circle cx="42.75" cy="31.75" fill="currentColor" r="0.6352941176470588" /><circle cx="43.75" cy="31.75" fill="currentColor" r="0.5399999999999999" /><circle cx="26.75" cy="32.75" fill="currentColor" r="0.3741176470588235" /><circle cx="27.75" cy="32.75" fill="currentColor" r="0.6317647058823528" /><circle cx="28.75" cy="32.75" fill="currentColor" r="0.5399999999999999" /><circle cx="29.75" cy="32.75" fill="currentColor" r="0.3988235294117647" /><circle cx="30.75" cy="32.75" fill="currentColor" r="0.18705882352941175" /><circle cx="33.75" cy="32.75" fill="currentColor" r="0.38823529411764707" /><circle cx="34.75" cy="32.75" fill="currentColor" r="0.6494117647058822" /><circle cx="35.75" cy="32.75" fill="currentColor" r="0.5929411764705882" /><circle cx="36.75" cy="32.75" fill="currentColor" r="0.6" /><circle cx="37.75" cy="32.75" fill="currentColor" r="0.6247058823529411" /><circle cx="38.75" cy="32.75" fill="currentColor" r="0.6070588235294118" /><circle cx="39.75" cy="32.75" fill="currentColor" r="0.6247058823529411" /><circle cx="40.75" cy="32.75" fill="currentColor" r="0.6282352941176469" /><circle cx="41.75" cy="32.75" fill="currentColor" r="0.6035294117647059" /><circle cx="42.75" cy="32.75" fill="currentColor" r="0.6352941176470588" /><circle cx="43.75" cy="32.75" fill="currentColor" r="0.5682352941176471" /><circle cx="44.75" cy="32.75" fill="currentColor" r="0.16235294117647056" /><circle cx="34.75" cy="33.75" fill="currentColor" r="0.36352941176470593" /><circle cx="35.75" cy="33.75" fill="currentColor" r="0.5964705882352941" /><circle cx="36.75" cy="33.75" fill="currentColor" r="0.6317647058823528" /><circle cx="37.75" cy="33.75" fill="currentColor" r="0.6176470588235293" /><circle cx="38.75" cy="33.75" fill="currentColor" r="0.6105882352941175" /><circle cx="39.75" cy="33.75" fill="currentColor" r="0.6105882352941175" /><circle cx="40.75" cy="33.75" fill="currentColor" r="0.6352941176470588" /><circle cx="41.75" cy="33.75" fill="currentColor" r="0.6141176470588234" /><circle cx="42.75" cy="33.75" fill="currentColor" r="0.6282352941176469" /><circle cx="43.75" cy="33.75" fill="currentColor" r="0.5929411764705882" /><circle cx="44.75" cy="33.75" fill="currentColor" r="0.1976470588235294" /><circle cx="36.75" cy="34.75" fill="currentColor" r="0.4376470588235294" /><circle cx="37.75" cy="34.75" fill="currentColor" r="0.6211764705882352" /><circle cx="38.75" cy="34.75" fill="currentColor" r="0.6776470588235294" /><circle cx="39.75" cy="34.75" fill="currentColor" r="0.6599999999999999" /><circle cx="40.75" cy="34.75" fill="currentColor" r="0.6352941176470588" /><circle cx="41.75" cy="34.75" fill="currentColor" r="0.6282352941176469" /><circle cx="42.75" cy="34.75" fill="currentColor" r="0.6247058823529411" /><circle cx="43.75" cy="34.75" fill="currentColor" r="0.6035294117647059" /><circle cx="44.75" cy="34.75" fill="currentColor" r="0.23294117647058826" /><circle cx="38.75" cy="35.75" fill="currentColor" r="0.28941176470588237" /><circle cx="39.75" cy="35.75" fill="currentColor" r="0.4658823529411765" /><circle cx="40.75" cy="35.75" fill="currentColor" r="0.5964705882352941" /><circle cx="41.75" cy="35.75" fill="currentColor" r="0.6635294117647059" /><circle cx="42.75" cy="35.75" fill="currentColor" r="0.6352941176470588" /><circle cx="43.75" cy="35.75" fill="currentColor" r="0.6" /><circle cx="44.75" cy="35.75" fill="currentColor" r="0.24352941176470588" /><circle cx="41.75" cy="36.75" fill="currentColor" r="0.3776470588235294" /><circle cx="42.75" cy="36.75" fill="currentColor" r="0.6317647058823528" /><circle cx="43.75" cy="36.75" fill="currentColor" r="0.6599999999999999" /><circle cx="44.75" cy="36.75" fill="currentColor" r="0.25058823529411767" /><circle cx="43.75" cy="37.75" fill="currentColor" r="0.5258823529411765" /><circle cx="44.75" cy="37.75" fill="currentColor" r="0.2823529411764706" /><circle cx="44.75" cy="38.75" fill="currentColor" r="0.2223529411764706" /><circle cx="44.75" cy="39.75" fill="currentColor" r="0.24705882352941178" /><circle cx="44.75" cy="40.75" fill="currentColor" r="0.21529411764705883" /><circle cx="44.75" cy="41.75" fill="currentColor" r="0.17294117647058824" /><circle cx="44.75" cy="42.75" fill="currentColor" r="0.17294117647058824" /><circle cx="44.75" cy="43.75" fill="currentColor" r="0.16235294117647056" /><circle cx="44.75" cy="46.75" fill="currentColor" r="0.16235294117647056" /><circle cx="44.75" cy="47.75" fill="currentColor" r="0.18000000000000002" /></svg>